<svg width="400" height="400" viewBox="0 0 400 400" fill="none" xmlns="http://www.w3.org/2000/svg">
<rect width="400" height="400" fill="black"/>
<g clip-path="url(#clip0_106_204)">
<path d="M118.75 198.963C124.065 197.159 128.027 191.834 128.027 185.244C128.027 175.313 121 168.003 108.572 168.003H78.933V231.999H110.284C122.26 231.999 130.006 224.509 130.006 214.128C130.006 206.185 124.964 200.498 118.75 198.963ZM91.1813 178.475H106.589C112.627 178.475 115.778 181.541 115.778 186.419C115.778 191.292 112.355 194.45 106.681 194.45H91.1813V178.475ZM107.941 221.619H91.1813V204.742H108.121C114.334 204.742 117.578 208.262 117.578 213.315C117.578 218.461 113.975 221.619 107.941 221.619Z" fill="white"/>
<path d="M243.834 210.335L217.266 168.001H201.779V232.001H214.208V186.597L243.207 232.001H256.263V168.001H243.834V210.335Z" fill="white"/>
<path d="M163.007 215.573L146.474 168.042L137.779 181.652L156.342 232.001H169.135L192.819 168.001H179.671L163.007 215.573Z" fill="white"/>
<path d="M321.067 168.001H306.047L279.749 199.641V168.001H267.305V232.001H279.749V200.36L306.047 232.001H321.067L294.182 200L321.067 168.001Z" fill="white"/>
</g>
<defs>
<clipPath id="clip0_106_204">
<rect width="242.133" height="64" fill="white" transform="translate(78.9333 168)"/>
</clipPath>
</defs>
</svg>
